<?xml version="1.0" ?><!DOCTYPE svg  PUBLIC '-//W3C//DTD SVG 1.1//EN'  'http://www.w3.org/Graphics/SVG/1.1/DTD/svg11.dtd'><svg height="512px" style="enable-background:new 0 0 512 512;" version="1.1" viewBox="0 0 512 512" width="512px" xml:space="preserve" xmlns="http://www.w3.org/2000/svg" xmlns:xlink="http://www.w3.org/1999/xlink"><g id="linked_in__x2C_"><g><path d="M492.871,374.968c0,65.451-53.089,118.482-118.565,118.482H137.168    c-65.497,0-118.566-53.031-118.566-118.482V138.009c0-65.432,53.069-118.483,118.566-118.483h237.137    c65.477,0,118.565,53.051,118.565,118.483V374.968z" style="fill:#0074B5;"/><rect height="197.464" style="fill:#FFFFFF;" width="69.164" x="107.526" y="207.124"/><path d="M142.108,177.503c19.086,0,34.582-15.485,34.582-34.558s-15.496-34.557-34.582-34.557    c-19.114,0-34.582,15.485-34.582,34.557S122.995,177.503,142.108,177.503z" style="fill:#FFFFFF;"/><path d="M403.947,296.076c0-53.276-11.501-88.952-73.66-88.952c-29.873,0-49.924,11.088-58.126,26.651    h-0.848v-26.651h-55.096v197.464h57.584v-97.867c0-25.821,4.884-50.808,36.841-50.808c31.474,0,34.021,29.518,34.021,52.467    v96.208h59.284V296.076z" style="fill:#FFFFFF;"/><rect height="197.464" style="fill:#FFFFFF;" width="69.164" x="107.526" y="207.124"/><path d="M142.108,177.503c19.086,0,34.582-15.485,34.582-34.558s-15.496-34.557-34.582-34.557    c-19.114,0-34.582,15.485-34.582,34.557S122.995,177.503,142.108,177.503z" style="fill:#FFFFFF;"/><path d="M403.947,296.076c0-53.276-11.501-88.952-73.66-88.952c-29.873,0-49.924,11.088-58.126,26.651    h-0.848v-26.651h-55.096v197.464h57.584v-97.867c0-25.821,4.884-50.808,36.841-50.808c31.474,0,34.021,29.518,34.021,52.467    v96.208h59.284V296.076z" style="fill:#FFFFFF;"/><path d="M176.69,207.124v197.464h-69.164V207.124H176.69 M176.69,197.247h-69.164    c-5.455,0-9.877,4.422-9.877,9.877v197.464c0,5.455,4.422,9.877,9.877,9.877h69.164c5.455,0,9.877-4.422,9.877-9.877V207.124    C186.567,201.669,182.146,197.247,176.69,197.247L176.69,197.247z" style="fill:#005788;"/><path d="M142.108,108.389c19.086,0,34.582,15.485,34.582,34.557s-15.496,34.558-34.582,34.558    c-19.114,0-34.582-15.485-34.582-34.558S122.995,108.389,142.108,108.389 M142.108,98.512c-24.515,0-44.459,19.933-44.459,44.434    c0,24.501,19.944,44.435,44.459,44.435s44.459-19.933,44.459-44.435C186.567,118.445,166.623,98.512,142.108,98.512    L142.108,98.512z" style="fill:#005788;"/><path d="M330.287,207.124c62.159,0,73.66,35.676,73.66,88.952v108.512h-59.284V308.38    c0-22.949-2.547-52.467-34.021-52.467c-31.957,0-36.841,24.986-36.841,50.808v97.867h-57.584V207.124h55.096v26.651h0.848    C280.363,218.212,300.414,207.124,330.287,207.124 M330.287,197.247c-15.882,0-29.839,2.85-41.483,8.472    c-2.688,1.298-5.23,2.74-7.613,4.313v-2.908c0-5.455-4.422-9.877-9.877-9.877h-55.096c-5.455,0-9.877,4.422-9.877,9.877v197.464    c0,5.455,4.422,9.877,9.877,9.877h57.584c5.455,0,9.877-4.422,9.877-9.877v-97.867c0-8.953,0.54-21.837,5.212-30.323    c2.719-4.938,7.648-10.607,21.752-10.607c17.6,0,24.144,11.543,24.144,42.59v96.208c0,5.455,4.422,9.877,9.877,9.877h59.284    c5.455,0,9.877-4.422,9.877-9.877V296.076c0-22.218-1.732-50.256-15.242-70.027C385.339,206.668,362.999,197.247,330.287,197.247    L330.287,197.247z" style="fill:#005788;"/><path d="M364.039,478.061H147.415c-62.448,0-113.253-50.818-113.253-113.283V148.179    c0-62.454,50.805-113.263,113.253-113.263h216.624c62.459,0,113.272,50.81,113.272,113.263v216.599    C477.312,427.242,426.498,478.061,364.039,478.061z M147.415,44.818c-56.988,0-103.351,46.367-103.351,103.36v216.599    c0,57.004,46.363,103.381,103.351,103.381h216.624c56.998,0,103.37-46.377,103.37-103.381V148.179    c0-56.993-46.372-103.36-103.37-103.36H147.415z" style="fill:#005788;"/></g></g><g id="Layer_1"/></svg>